<?xml version="1.0" encoding="UTF-8"?> <svg xmlns="http://www.w3.org/2000/svg" width="112" height="26" viewBox="0 0 112 26" fill="none"><path d="M1.43555 24V7.79883H1.74316L5.26367 16.2412V24H1.43555ZM1.43555 2.53516V0.0742188H4.47754L11.7236 17.6768L16.4404 7.0127H16.7822V15.6943L13.0908 24H10.3564L1.43555 2.53516ZM18.5254 24V0.0742188H22.3535V24H18.5254ZM25.1904 24V0.0742188H37.6318V3.83398H29.0186V10.1914H34.4189V14.0195H29.0186V20.2061H37.6318V24H25.1904ZM39.2725 0.0742188H43.1348L48.9111 19.8301L47.5098 24H46.2109L39.2725 0.0742188ZM47.8174 9.88379L50.9619 0.0742188H54.8584C54.6533 0.757812 54.1634 2.30729 53.3887 4.72266C51.5202 10.5788 50.3581 14.2816 49.9023 15.8311H49.5605L47.8174 9.88379ZM56.1914 24L60.7031 3.93652H61.2158L62.7881 11.1826L59.9512 24H56.1914ZM62.5146 20.582L63.3008 16.8564H65.8643L62.1729 0.0742188H65.9326L71.4355 24H67.6416L66.8896 20.582H62.5146Z" fill="white"></path><path d="M75.9219 25.5428V19.2303C75.9219 18.6887 76.1458 18.1731 76.5938 17.6835C77.1146 17.1314 77.776 16.8553 78.5781 16.8553V18.5116C78.0573 18.5116 77.7448 18.7408 77.6406 19.1991C77.6198 19.2824 77.6094 19.3658 77.6094 19.4491V25.5428H75.9219ZM79.2969 18.5116V16.8553C80.0469 16.8658 80.6615 17.1053 81.1406 17.5741C81.6302 17.0949 82.2448 16.8553 82.9844 16.8553V18.5116C82.4427 18.5116 82.1198 18.7408 82.0156 19.1991C81.9948 19.2824 81.9844 19.3658 81.9844 19.4491V25.5428H80.2969V19.4491C80.2969 18.9803 80.0833 18.6835 79.6562 18.5585C79.5417 18.5272 79.4219 18.5116 79.2969 18.5116ZM83.6875 18.5116V16.8553C84.6771 16.8553 85.4375 17.2616 85.9688 18.0741C86.2292 18.4803 86.3594 18.8658 86.3594 19.2303V25.5428H84.6719V19.4491C84.6719 18.9074 84.4115 18.6001 83.8906 18.5272C83.8281 18.5168 83.7604 18.5116 83.6875 18.5116ZM87.5469 23.246V16.8866H89.2344V23.0585C89.2344 23.3918 89.401 23.647 89.7344 23.8241C89.9115 23.9178 90.1094 23.9647 90.3281 23.9647V25.621C89.3177 25.621 88.5312 25.2251 87.9688 24.4335C87.6875 24.0272 87.5469 23.6314 87.5469 23.246ZM91.0156 25.621V23.9647C91.5365 23.9647 91.8802 23.7616 92.0469 23.3553C92.0885 23.2512 92.1094 23.1522 92.1094 23.0585V16.8866H93.7969V23.246C93.7969 23.7356 93.5781 24.2199 93.1406 24.6991C92.5677 25.3033 91.8594 25.6106 91.0156 25.621ZM94.7031 23.2616L96.25 22.9803C96.25 23.3866 96.4635 23.6939 96.8906 23.9022C97.0781 23.996 97.2604 24.0428 97.4375 24.0428V25.621C96.3333 25.621 95.5365 25.2303 95.0469 24.4491C94.8177 24.0741 94.7031 23.6783 94.7031 23.2616ZM94.7812 19.2928C94.7812 18.3345 95.224 17.621 96.1094 17.1522C96.5365 16.9335 96.9635 16.8241 97.3906 16.8241V18.371C96.8906 18.371 96.5573 18.5689 96.3906 18.9647C96.349 19.0793 96.3281 19.1887 96.3281 19.2928C96.3281 19.6053 96.599 19.8814 97.1406 20.121C97.599 20.3085 98.2969 20.5116 99.2344 20.7303C99.9531 20.8762 100.464 21.246 100.766 21.8397C100.922 22.1626 101 22.5168 101 22.9022C101 23.9335 100.583 24.6939 99.75 25.1835C99.2708 25.4751 98.724 25.621 98.1094 25.621V24.0585C98.526 24.0585 98.8698 23.9178 99.1406 23.6366C99.3073 23.4387 99.3906 23.2199 99.3906 22.9803C99.3906 22.6158 98.9844 22.3085 98.1719 22.0585C98.0052 22.0064 97.7448 21.9335 97.3906 21.8397C96.8594 21.7147 96.4844 21.6106 96.2656 21.5272C95.4948 21.1835 95.026 20.6783 94.8594 20.0116C94.8073 19.7928 94.7812 19.5533 94.7812 19.2928ZM98.0938 18.371V16.8241C99.0104 16.8241 99.75 17.1626 100.312 17.8397C100.667 18.2772 100.844 18.7356 100.844 19.2147L99.2969 19.4803C99.2969 18.9491 99.0104 18.6001 98.4375 18.4335C98.3125 18.3918 98.1979 18.371 98.0938 18.371ZM102.062 15.6835C102.062 15.2981 102.234 15.022 102.578 14.8553C102.714 14.7928 102.849 14.7616 102.984 14.7616C103.38 14.7616 103.661 14.9335 103.828 15.2772C103.891 15.4126 103.922 15.5481 103.922 15.6835C103.922 16.0585 103.745 16.3293 103.391 16.496C103.255 16.5585 103.12 16.5897 102.984 16.5897C102.609 16.5897 102.333 16.4231 102.156 16.0897C102.094 15.9647 102.062 15.8293 102.062 15.6835ZM102.172 25.5428V17.2147H103.844V25.5428H102.172ZM105.25 23.1835C105.25 23.7251 105.464 24.2303 105.891 24.6991C106.411 25.2616 107.099 25.5428 107.953 25.5428V23.9491C107.411 23.9491 107.073 23.7668 106.938 23.4022C106.906 23.3293 106.891 23.2564 106.891 23.1835V19.2616C106.891 18.9803 107.042 18.7616 107.344 18.6053C107.521 18.5116 107.724 18.4647 107.953 18.4647V16.8866C106.932 16.8866 106.161 17.2928 105.641 18.1053C105.391 18.4908 105.26 18.8658 105.25 19.2303V23.1835ZM108.656 18.4803C109.156 18.4803 109.458 18.7147 109.562 19.1835C109.583 19.2668 109.594 19.3501 109.594 19.4335V19.871L111.125 19.2928C111.125 18.522 110.812 17.8918 110.188 17.4022C109.729 17.0585 109.219 16.8866 108.656 16.8866V18.4803ZM108.656 25.5585C109.396 25.5793 110.047 25.3033 110.609 24.7303C111.078 24.2512 111.312 23.7199 111.312 23.1366L109.781 22.5585V22.9803C109.729 23.6262 109.354 23.9543 108.656 23.9647V25.5585Z" fill="white"></path></svg> 