<?xml version="1.0" encoding="UTF-8"?> <svg xmlns="http://www.w3.org/2000/svg" width="40" height="40" viewBox="0 0 40 40" fill="none"><g clip-path="url(#clip0_216_336)"><path d="M39.9883 0H0.0117188C0.00524666 0 0 0.00524666 0 0.0117188V39.9883C0 39.9948 0.00524666 40 0.0117188 40H39.9883C39.9948 40 40 39.9948 40 39.9883V0.0117188C40 0.00524666 39.9948 0 39.9883 0Z" fill="#5281B8"></path><path d="M21.4062 28.3592C21.7968 28.2811 22.5 28.1249 22.5 27.1874C22.5 27.1874 22.4218 24.8436 23.5156 24.5311C24.6093 24.2186 26.0156 26.7967 27.5 27.8124C28.5937 28.5155 29.4531 28.4374 29.4531 28.4374L33.4375 28.3592C33.4375 28.3592 35.4687 28.203 34.5312 26.5624C34.4531 26.4061 33.8281 25.3905 31.4843 23.2811C29.0625 20.9374 29.4531 21.328 32.3437 17.3436C34.1406 14.9217 34.9218 13.4374 34.6875 12.8905C34.375 12.3436 33.125 12.4217 33.125 12.4217H28.6718C28.2031 12.4217 27.9687 12.4999 27.7343 12.8905C27.7343 12.8905 27.0312 14.8436 26.0937 16.4061C24.1406 19.7655 23.3593 19.9217 22.9687 19.6874C22.2656 19.2967 22.4218 17.8124 22.4218 16.7967C22.4218 13.2811 22.9687 12.0311 21.4062 11.7186C20.3906 11.5624 16.7968 11.4061 15.7031 11.953C15.1562 12.2655 14.8437 12.8124 15.0781 12.8905C15.3125 12.8905 16.0156 12.9686 16.4062 13.4374C17.0312 14.453 17.1093 19.2967 16.25 19.7655C15.0781 20.6249 12.1093 14.9217 11.4062 13.0467C11.25 12.578 11.0156 12.4999 10.4687 12.3436H6.17183C5.70308 12.3436 4.99996 12.4217 5.31246 13.3592C7.42183 17.7342 11.7968 28.4374 19.6875 28.3592H21.4062Z" fill="white"></path></g><defs><clipPath id="clip0_216_336"><rect width="40" height="40" fill="white"></rect></clipPath></defs></svg> 